<?xml version="1.0" encoding="UTF-8"?>
<svg id="_레이어_1" data-name="레이어 1" xmlns="http://www.w3.org/2000/svg" viewBox="0 0 347.27 241">
  <defs>
    <style>
      .cls-1, .cls-2 {
        fill: #eef1f7;
      }

      .cls-2 {
        font-size: 7px;
      }

      .cls-2, .cls-3 {
        font-family: AppleSDGothicNeo-Medium-KSCpc-EUC-H, 'Apple SD Gothic Neo';
        font-weight: 500;
      }

      .cls-4 {
        fill: #2fbb68;
      }

      .cls-3 {
        fill: #fff;
        font-size: 12px;
      }

      .cls-5 {
        fill: none;
        stroke: #eef1f7;
        stroke-linecap: round;
      }

      .cls-6 {
        opacity: .4;
      }

      .cls-7 {
        letter-spacing: 0em;
      }
    </style>
  </defs>
  <path class="cls-1" d="M10,241h0c5.52,0,10-4.48,10-10v-37c0-5.52-4.48-10-10-10h0c-5.52,0-10,4.48-10,10v37c0,5.52,4.48,10,10,10Z"/>
  <path class="cls-1" d="M50,241h0c5.52,0,10-4.48,10-10v-15c0-5.52-4.48-10-10-10h0c-5.52,0-10,4.48-10,10v15c0,5.52,4.48,10,10,10Z"/>
  <path class="cls-4" d="M90,241h0c5.52,0,10-4.48,10-10v-49c0-5.52-4.48-10-10-10h0c-5.52,0-10,4.48-10,10v49c0,5.52,4.48,10,10,10Z"/>
  <path class="cls-1" d="M130,241h0c5.52,0,10-4.48,10-10v-100c0-5.52-4.48-10-10-10h0c-5.52,0-10,4.48-10,10v100c0,5.52,4.48,10,10,10Z"/>
  <path class="cls-1" d="M170,241h0c5.52,0,10-4.48,10-10v-71c0-5.52-4.48-10-10-10h0c-5.52,0-10,4.48-10,10v71c0,5.52,4.48,10,10,10Z"/>
  <path class="cls-4" d="M210,241h0c5.52,0,10-4.48,10-10V66c0-5.52-4.48-10-10-10h0c-5.52,0-10,4.48-10,10v165c0,5.52,4.48,10,10,10Z"/>
  <path class="cls-1" d="M250,241h0c5.52,0,10-4.48,10-10V87c0-5.52-4.48-10-10-10h0c-5.52,0-10,4.48-10,10v144c0,5.52,4.48,10,10,10Z"/>
  <path class="cls-1" d="M288,241h0c5.52,0,10-4.48,10-10V10c0-5.52-4.48-10-10-10h0c-5.52,0-10,4.48-10,10v221c0,5.52,4.48,10,10,10Z"/>
  <g>
    <path class="cls-4" d="M234.4,13.09c-.64-5.36-5.5-9.18-10.86-8.54l-37.74,4.51c-5.36.64-9.18,5.5-8.54,10.86l1.42,11.86c.64,5.36,5.5,9.18,10.86,8.54l9.53-1.14c3.47-.41,6.89,1.05,8.98,3.85.5.67,1.54.54,1.87-.22,1.37-3.21,4.36-5.44,7.82-5.86l9.53-1.14c5.36-.64,9.18-5.5,8.54-10.86l-1.42-11.86Z"/>
    <path class="cls-4" d="M200.7,28.62l-.29-2.38-5.32.64-.14-1.21,4.65-8.59,1.37-.16.93,7.8,1.71-.2.16,1.32-1.71.2.29,2.38-1.65.2ZM200.26,24.91l-.69-5.8.38-.05-3.63,6.73-.05-.41,4-.48ZM209.32,27.74c-1.43.17-2.59-.19-3.48-1.09-.88-.9-1.43-2.24-1.64-4.03-.16-1.33-.1-2.47.19-3.42.28-.96.75-1.72,1.42-2.29.67-.57,1.52-.91,2.54-1.03.63-.07,1.26-.02,1.87.14.6.14,1.17.41,1.65.8l-.45,1.35c-.43-.33-.91-.58-1.43-.72-.48-.14-.99-.18-1.49-.12-1.06.13-1.82.59-2.28,1.4-.47.8-.61,1.92-.44,3.38l.17,1.39-.16.02c0-.6.13-1.13.37-1.58.24-.47.58-.85,1.02-1.13.46-.29.98-.47,1.53-.53.69-.08,1.31,0,1.87.26.57.25,1.06.65,1.41,1.16.37.51.6,1.11.68,1.82.09.73,0,1.4-.26,2.02-.25.61-.66,1.13-1.19,1.52-.53.38-1.16.62-1.9.71M209.05,26.38c.46-.05.84-.2,1.16-.44.33-.24.57-.54.72-.91.15-.38.2-.81.15-1.28s-.2-.86-.44-1.19c-.23-.32-.55-.57-.91-.72-.36-.17-.77-.22-1.23-.17-.42.04-.83.2-1.17.45-.32.23-.57.55-.72.91-.15.37-.2.79-.15,1.26.06.47.2.87.44,1.2.24.33.54.56.91.72.37.15.79.2,1.24.15M214.6,26.96l-1.44-12.02,1.65-.2.88,7.38h.03s3.16-4.02,3.16-4.02l2.04-.24-3.82,4.85-.07-.74,5.24,4.08-2.09.25-4.35-3.31h-.03s.45,3.78.45,3.78l-1.65.2Z"/>
  </g>
  <g class="cls-6">
    <path class="cls-5" d="M311.5,8.5h9M316.5,23.5h4M316.5,38.5h4M311.5,53.5h9M316.5,68.5h4M316.5,83.5h4M311.5,98.5h9M316.5,113.5h4M316.5,128.5h4M311.5,143.5h9M316.5,158.5h4M316.5,173.5h4M311.5,188.5h9M316.5,203.5h4M316.5,218.5h4M311.5,233.5h9"/>
  </g>
  <text class="cls-3" transform="translate(197.09 28.61) rotate(-6)"><tspan x="0" y="0">79%</tspan></text>
  <text class="cls-2" transform="translate(327.32 10.61)"><tspan x="0" y="0">100%</tspan></text>
  <text class="cls-2" transform="translate(325.78 54.96)"><tspan x="0" y="0">80%</tspan></text>
  <text class="cls-2" transform="translate(327.32 99.96)"><tspan class="cls-7" x="0" y="0">6</tspan><tspan x="3.87" y="0">0%</tspan></text>
  <text class="cls-2" transform="translate(325.78 145.91)"><tspan x="0" y="0">40%</tspan></text>
  <text class="cls-2" transform="translate(325.78 190.8)"><tspan class="cls-7" x="0" y="0">2</tspan><tspan x="3.7" y="0">0%</tspan></text>
  <text class="cls-2" transform="translate(325.78 235.69)"><tspan x="0" y="0">0%</tspan></text>
</svg>